<svg version="1.1" preserveAspectRatio="none" xmlns="http://www.w3.org/2000/svg" width="500" height="500" viewBox="0 0 500 500"><rect width="100%" height="100%" fill="#101F37" fill-opacity="1"/><svg viewBox="42.5066 -45.0552 356.5334 320.9933" width="333" height="299.80576546264666" x="83.5px" y="100.0971px" xmlns="http://www.w3.org/2000/svg" xmlns:xlink="http://www.w3.org/1999/xlink" preserveAspectRatio="none"><defs></defs><style>.companyName {fill:#E9B0D6;fill-opacity:1;}.icon1 {fill:#929292;fill-opacity:1;}.icon2 {fill:#E9B0D6;fill-opacity:1;}.icon3 {fill:#E5E5E5;fill-opacity:1;}.icon3-str {stroke:#E5E5E5;stroke-opacity:1;}.text {fill:#E9B0D6;fill-opacity:1;}</style><g opacity="1" transform="rotate(0 109.4827 259.9381)">
<svg width="222.5812" height="16" x="109.4827" y="259.9381" version="1.1" preserveAspectRatio="none" viewBox="1.56 -28 499.64 35.92">
  <g transform="matrix(1 0 0 1 0 0)" class="text"><path id="id-6izo4zJp23" d="M5.12-22.84Q6.80-24.68 9.20-25.74Q11.60-26.80 14.16-26.80Q16.72-26.80 18.60-26.24Q20.48-25.68 22-24.72L22-24.72Q25.16-22.68 26.64-19.28L26.64-19.28L23.36-19.28Q22.16-21.44 20.02-22.66Q17.88-23.88 15.16-23.88Q12.44-23.88 10.52-23.06Q8.60-22.24 7.28-20.80L7.28-20.80Q4.56-17.84 4.56-13.24L4.56-13.24Q4.56-8.60 7.24-5.68L7.24-5.68Q10.08-2.60 14.76-2.60L14.76-2.60Q18.52-2.60 21.24-4.92L21.24-4.92Q24.12-7.36 24.12-11.36L24.12-11.36L14.44-11.36L14.44-14.08L26.88-14.08L26.88 0L24.12 0L24.12-4.68Q21.84-1.24 17.80-0.08L17.80-0.08Q16.32 0.32 13.90 0.32Q11.48 0.32 9.08-0.74Q6.68-1.80 5-3.64L5-3.64Q1.56-7.40 1.56-13.24L1.56-13.24Q1.56-19 5.12-22.84L5.12-22.84Z M44.44-2.40L44.44-2.40Q48.48-2.40 50.24-5.76L50.24-5.76L53.52-5.76Q52.48-3.04 50.22-1.36Q47.96 0.32 44.40 0.32L44.40 0.32Q39.88 0.32 37.04-2.68L37.04-2.68Q34.28-5.60 34.28-10L34.28-10Q34.28-14.44 36.92-17.32L36.92-17.32Q39.72-20.32 44.20-20.32L44.20-20.32Q48.68-20.32 51.48-17.32L51.48-17.32Q54.12-14.44 54.12-10L54.12-10L54.12-8.80L37.36-8.80Q37.68-6.04 39.56-4.24L39.56-4.24Q41.48-2.40 44.44-2.40ZM44.20-17.60L44.20-17.60Q41.44-17.60 39.56-15.88L39.56-15.88Q37.80-14.24 37.40-11.60L37.40-11.60L51-11.60Q50.60-14.24 48.84-15.88L48.84-15.88Q46.96-17.60 44.20-17.60Z M66.72 0L63.72 0L63.72-17.36L59.64-17.36L59.64-20L63.72-20L63.72-27.16L66.72-27.16L66.72-20L71.32-20L71.32-17.36L66.72-17.36L66.72 0Z M91.12 7.92L91.12-20L94.12-20L94.12 7.92L91.12 7.92ZM91-27.28L94.24-27.28L94.24-23.36L91-23.36L91-27.28Z M112-20.32L112-20.32Q116.48-20.32 119.28-17.32L119.28-17.32Q121.92-14.44 121.92-10L121.92-10Q121.92-5.56 119.28-2.68L119.28-2.68Q116.48 0.32 112 0.32L112 0.32Q107.52 0.32 104.72-2.68L104.72-2.68Q102.08-5.56 102.08-10L102.08-10Q102.08-14.44 104.72-17.32L104.72-17.32Q107.52-20.32 112-20.32ZM112-2.40L112-2.40Q115.24-2.40 117.12-4.64L117.12-4.64Q118.92-6.76 118.92-10L118.92-10Q118.92-13.24 117.12-15.36L117.12-15.36Q115.24-17.60 112-17.60L112-17.60Q108.76-17.60 106.88-15.36L106.88-15.36Q105.08-13.24 105.08-10L105.08-10Q105.08-6.76 106.88-4.64L106.88-4.64Q108.76-2.40 112-2.40Z M132.88-28L132.88-16.76Q135.32-20.32 140.04-20.32L140.04-20.32Q144.36-20.32 147.04-17.32L147.04-17.32Q149.72-14.36 149.72-10L149.72-10Q149.72-5.64 147.04-2.68L147.04-2.68Q144.36 0.32 139.82 0.32Q135.28 0.32 132.88-3.20L132.88-3.20L132.88 0L129.88 0L129.88-28L132.88-28ZM139.64-2.40L139.64-2.40Q142.84-2.40 144.84-4.64L144.84-4.64Q146.72-6.76 146.72-10L146.72-10Q146.72-13.24 144.84-15.36L144.84-15.36Q142.84-17.60 139.64-17.60L139.64-17.60Q136.40-17.60 134.52-15.36L134.52-15.36Q132.72-13.24 132.72-10L132.72-10Q132.72-6.76 134.52-4.64L134.52-4.64Q136.40-2.40 139.64-2.40Z M172.44-14.64L169.40-14.64Q169-17.76 164.38-17.76Q159.76-17.76 159.76-14.88L159.76-14.88Q159.76-13.68 160.74-13.06Q161.72-12.44 163.20-12.04Q164.68-11.64 166.42-11.30Q168.16-10.96 169.64-10.34Q171.12-9.72 172.10-8.64Q173.08-7.56 173.08-5.68L173.08-5.68Q173.08-2.76 170.88-1.22Q168.68 0.32 164.92 0.32L164.92 0.32Q160.92 0.32 158.56-1.68L158.56-1.68Q156.40-3.44 156.24-6.28L156.24-6.28L159.36-6.28Q159.64-3.52 162.48-2.56L162.48-2.56Q163.52-2.24 164.54-2.24Q165.56-2.24 166.44-2.36Q167.32-2.48 168.16-2.80L168.16-2.80Q170.08-3.56 170.08-5.40L170.08-5.40Q170.08-6.64 169.10-7.30Q168.12-7.96 166.64-8.38Q165.16-8.80 163.42-9.14Q161.68-9.48 160.20-10.08Q158.72-10.68 157.74-11.72Q156.76-12.76 156.76-14.60L156.76-14.60Q156.76-17.32 158.74-18.82Q160.72-20.32 164.60-20.32L164.60-20.32Q168.28-20.32 170.40-18.56L170.40-18.56Q172.16-17.08 172.44-14.64L172.44-14.64Z M209.04 0L209.04-3.20Q206.64 0.32 201.88 0.32L201.88 0.32Q197.56 0.32 194.84-2.68L194.84-2.68Q192.20-5.64 192.20-10L192.20-10Q192.20-14.36 194.84-17.32L194.84-17.32Q197.56-20.32 202.08-20.32Q206.60-20.32 209.04-16.76L209.04-16.76L209.04-20L212.04-20L212.04 0L209.04 0ZM202.28-2.40L202.28-2.40Q205.52-2.40 207.40-4.64L207.40-4.64Q209.20-6.76 209.20-10L209.20-10Q209.20-13.24 207.40-15.36L207.40-15.36Q205.52-17.60 202.28-17.60L202.28-17.60Q199.08-17.60 197.08-15.36L197.08-15.36Q195.20-13.24 195.20-10L195.20-10Q195.20-6.76 197.08-4.64L197.08-4.64Q199.08-2.40 202.28-2.40Z M221.24-20L224.24-20L224.24-16.88Q225.32-18.32 226.88-19.32Q228.44-20.32 230.44-20.32Q232.44-20.32 233.88-19.76Q235.32-19.20 236.40-18.08L236.40-18.08Q238.88-15.64 238.88-11.64L238.88-11.64L238.88 0L235.88 0L235.88-11.56Q235.88-14.32 234.32-15.96Q232.76-17.60 230.28-17.60L230.28-17.60Q227.76-17.60 226.00-15.92L226.00-15.92Q224.24-14.20 224.24-11.52L224.24-11.52L224.24 0L221.24 0L221.24-20Z M263.48 0L263.48-3.20Q261.08 0.32 256.32 0.32L256.32 0.32Q252.00 0.32 249.28-2.68L249.28-2.68Q246.64-5.64 246.64-10L246.64-10Q246.64-14.36 249.28-17.32L249.28-17.32Q252.00-20.32 256.52-20.32Q261.04-20.32 263.48-16.76L263.48-16.76L263.48-28L266.48-28L266.48 0L263.48 0ZM256.72-2.40L256.72-2.40Q259.96-2.40 261.84-4.64L261.84-4.64Q263.64-6.76 263.64-10L263.64-10Q263.64-13.24 261.84-15.36L261.84-15.36Q259.96-17.60 256.72-17.60L256.72-17.60Q253.52-17.60 251.52-15.36L251.52-15.36Q249.64-13.24 249.64-10L249.64-10Q249.64-6.76 251.52-4.64L251.52-4.64Q253.52-2.40 256.72-2.40Z M288.20 7.92L288.20-20L291.20-20L291.20 7.92L288.20 7.92ZM288.08-27.28L291.32-27.28L291.32-23.36L288.08-23.36L288.08-27.28Z M309.08-20.32L309.08-20.32Q313.56-20.32 316.36-17.32L316.36-17.32Q319-14.44 319-10L319-10Q319-5.56 316.36-2.68L316.36-2.68Q313.56 0.32 309.08 0.32L309.08 0.32Q304.60 0.32 301.80-2.68L301.80-2.68Q299.16-5.56 299.16-10L299.16-10Q299.16-14.44 301.80-17.32L301.80-17.32Q304.60-20.32 309.08-20.32ZM309.08-2.40L309.08-2.40Q312.32-2.40 314.20-4.64L314.20-4.64Q316-6.76 316-10L316-10Q316-13.24 314.20-15.36L314.20-15.36Q312.32-17.60 309.08-17.60L309.08-17.60Q305.84-17.60 303.96-15.36L303.96-15.36Q302.16-13.24 302.16-10L302.16-10Q302.16-6.76 303.96-4.64L303.96-4.64Q305.84-2.40 309.08-2.40Z M329.96-28L329.96-16.76Q332.40-20.32 337.12-20.32L337.12-20.32Q341.44-20.32 344.12-17.32L344.12-17.32Q346.80-14.36 346.80-10L346.80-10Q346.80-5.64 344.12-2.68L344.12-2.68Q341.44 0.32 336.90 0.32Q332.36 0.32 329.96-3.20L329.96-3.20L329.96 0L326.96 0L326.96-28L329.96-28ZM336.72-2.40L336.72-2.40Q339.92-2.40 341.92-4.64L341.92-4.64Q343.80-6.76 343.80-10L343.80-10Q343.80-13.24 341.92-15.36L341.92-15.36Q339.92-17.60 336.72-17.60L336.72-17.60Q333.48-17.60 331.60-15.36L331.60-15.36Q329.80-13.24 329.80-10L329.80-10Q329.80-6.76 331.60-4.64L331.60-4.64Q333.48-2.40 336.72-2.40Z M369.52-14.64L366.48-14.64Q366.08-17.76 361.46-17.76Q356.84-17.76 356.84-14.88L356.84-14.88Q356.84-13.68 357.82-13.06Q358.80-12.44 360.28-12.04Q361.76-11.64 363.50-11.30Q365.24-10.96 366.72-10.34Q368.20-9.72 369.18-8.64Q370.16-7.56 370.16-5.68L370.16-5.68Q370.16-2.76 367.96-1.22Q365.76 0.32 362 0.32L362 0.32Q358 0.32 355.64-1.68L355.64-1.68Q353.48-3.44 353.32-6.28L353.32-6.28L356.44-6.28Q356.72-3.52 359.56-2.56L359.56-2.56Q360.60-2.24 361.62-2.24Q362.64-2.24 363.52-2.36Q364.40-2.48 365.24-2.80L365.24-2.80Q367.16-3.56 367.16-5.40L367.16-5.40Q367.16-6.64 366.18-7.30Q365.20-7.96 363.72-8.38Q362.24-8.80 360.50-9.14Q358.76-9.48 357.28-10.08Q355.80-10.68 354.82-11.72Q353.84-12.76 353.84-14.60L353.84-14.60Q353.84-17.32 355.82-18.82Q357.80-20.32 361.68-20.32L361.68-20.32Q365.36-20.32 367.48-18.56L367.48-18.56Q369.24-17.08 369.52-14.64L369.52-14.64Z M406.12 0L406.12-3.20Q403.72 0.32 398.96 0.32L398.96 0.32Q394.64 0.32 391.92-2.68L391.92-2.68Q389.28-5.64 389.28-10L389.28-10Q389.28-14.36 391.92-17.32L391.92-17.32Q394.64-20.32 399.16-20.32Q403.68-20.32 406.12-16.76L406.12-16.76L406.12-28L409.12-28L409.12 0L406.12 0ZM399.36-2.40L399.36-2.40Q402.60-2.40 404.48-4.64L404.48-4.64Q406.28-6.76 406.28-10L406.28-10Q406.28-13.24 404.48-15.36L404.48-15.36Q402.60-17.60 399.36-17.60L399.36-17.60Q396.16-17.60 394.16-15.36L394.16-15.36Q392.28-13.24 392.28-10L392.28-10Q392.28-6.76 394.16-4.64L394.16-4.64Q396.16-2.40 399.36-2.40Z M427.00-20.32L427.00-20.32Q431.48-20.32 434.28-17.32L434.28-17.32Q436.92-14.44 436.92-10L436.92-10Q436.92-5.56 434.28-2.68L434.28-2.68Q431.48 0.32 427.00 0.32L427.00 0.32Q422.52 0.32 419.72-2.68L419.72-2.68Q417.08-5.56 417.08-10L417.08-10Q417.08-14.44 419.72-17.32L419.72-17.32Q422.52-20.32 427.00-20.32ZM427.00-2.40L427.00-2.40Q430.24-2.40 432.12-4.64L432.12-4.64Q433.92-6.76 433.92-10L433.92-10Q433.92-13.24 432.12-15.36L432.12-15.36Q430.24-17.60 427.00-17.60L427.00-17.60Q423.76-17.60 421.88-15.36L421.88-15.36Q420.08-13.24 420.08-10L420.08-10Q420.08-6.76 421.88-4.64L421.88-4.64Q423.76-2.40 427.00-2.40Z M444.88-20L447.88-20L447.88-16.88Q448.96-18.32 450.52-19.32Q452.08-20.32 454.08-20.32Q456.08-20.32 457.52-19.76Q458.96-19.20 460.04-18.08L460.04-18.08Q462.52-15.64 462.52-11.64L462.52-11.64L462.52 0L459.52 0L459.52-11.56Q459.52-14.32 457.96-15.96Q456.40-17.60 453.92-17.60L453.92-17.60Q451.40-17.60 449.64-15.92L449.64-15.92Q447.88-14.20 447.88-11.52L447.88-11.52L447.88 0L444.88 0L444.88-20Z M480.44-2.40L480.44-2.40Q484.48-2.40 486.24-5.76L486.24-5.76L489.52-5.76Q488.48-3.04 486.22-1.36Q483.96 0.32 480.40 0.32L480.40 0.32Q475.88 0.32 473.04-2.68L473.04-2.68Q470.28-5.60 470.28-10L470.28-10Q470.28-14.44 472.92-17.32L472.92-17.32Q475.72-20.32 480.20-20.32L480.20-20.32Q484.68-20.32 487.48-17.32L487.48-17.32Q490.12-14.44 490.12-10L490.12-10L490.12-8.80L473.36-8.80Q473.68-6.04 475.56-4.24L475.56-4.24Q477.48-2.40 480.44-2.40ZM480.20-17.60L480.20-17.60Q477.44-17.60 475.56-15.88L475.56-15.88Q473.80-14.24 473.40-11.60L473.40-11.60L487.00-11.60Q486.60-14.24 484.84-15.88L484.84-15.88Q482.96-17.60 480.20-17.60Z M497.32-4.08L501.20-4.08L501.20 0L497.32 0L497.32-4.08Z"/></g>
</svg>
</g><g opacity="1" transform="rotate(0 42.5066 215.9381)">
<svg width="356.5334" height="28" x="42.5066" y="215.9381" version="1.1" preserveAspectRatio="none" viewBox="2.0313 -32.3242 417.06640000000004 32.7539">
  <g transform="matrix(1 0 0 1 0 0)" class="companyName"><path id="id-D6z1nYkh13" d="M2.03-2.70L4.53-7.07Q6.88-5.66 9.69-5Q12.50-4.34 15.45-4.34L15.45-4.34Q17.44-4.34 18.77-4.61Q20.10-4.88 20.90-5.31Q21.70-5.74 22.03-6.29Q22.36-6.84 22.36-7.40L22.36-7.40Q22.36-8.22 21.65-8.81Q20.94-9.39 19.30-9.39L19.30-9.39Q18.54-9.39 17.66-9.30Q16.78-9.20 15.81-9.09Q14.84-8.98 13.80-8.89Q12.75-8.79 11.68-8.79L11.68-8.79Q9.34-8.79 7.69-9.30Q6.04-9.80 5-10.68Q3.96-11.56 3.50-12.76Q3.03-13.96 3.03-15.35L3.03-15.35Q3.03-17.11 3.85-18.59Q4.67-20.08 6.19-21.16Q7.71-22.25 9.87-22.85Q12.03-23.46 14.69-23.46L14.69-23.46Q16.07-23.46 17.59-23.29Q19.10-23.13 20.57-22.85Q22.03-22.58 23.38-22.22Q24.73-21.86 25.76-21.45L25.76-21.45L23.95-16.95Q21.74-17.77 19.54-18.25Q17.34-18.73 15.02-18.73L15.02-18.73Q13.40-18.73 12.28-18.49Q11.15-18.24 10.45-17.84Q9.75-17.44 9.42-16.92Q9.10-16.41 9.10-15.84L9.10-15.84Q9.10-15.43 9.27-15.10Q9.43-14.77 9.81-14.52Q10.20-14.28 10.81-14.15Q11.43-14.02 12.32-14.02L12.32-14.02Q13.14-14.02 14.06-14.12Q14.98-14.22 15.98-14.33Q16.97-14.43 18.04-14.53Q19.10-14.63 20.21-14.63L20.21-14.63Q22.29-14.63 23.84-14.14Q25.39-13.65 26.41-12.77Q27.42-11.89 27.93-10.70Q28.44-9.51 28.44-8.11L28.44-8.11Q28.44-6.29 27.60-4.73Q26.76-3.16 25.10-2.02Q23.44-0.88 20.97-0.23Q18.50 0.41 15.25 0.41L15.25 0.41Q13.26 0.41 11.41 0.17Q9.55-0.08 7.87-0.50Q6.19-0.92 4.72-1.48Q3.24-2.05 2.03-2.70L2.03-2.70Z M34.54-11.60L34.54-11.60Q34.54-13.95 35.50-16.08Q36.45-18.22 38.25-19.86Q40.05-21.50 42.65-22.48Q45.26-23.46 48.58-23.46L48.58-23.46Q51.88-23.46 54.53-22.47Q57.18-21.48 59.02-19.77Q60.87-18.05 61.85-15.72Q62.84-13.40 62.84-10.74L62.84-10.74Q62.84-10.41 62.83-10.03Q62.82-9.65 62.78-9.34L62.78-9.34L40.98-9.34Q41.36-8.30 42.19-7.44Q43.02-6.58 44.27-5.96Q45.52-5.33 47.16-4.99Q48.80-4.65 50.79-4.65L50.79-4.65Q52.78-4.65 54.75-5.07Q56.73-5.49 58.52-6.13L58.52-6.13L60.48-1.72Q59.34-1.19 58.18-0.79Q57.02-0.39 55.76-0.13Q54.50 0.14 53.12 0.27Q51.75 0.41 50.22 0.41L50.22 0.41Q46.34 0.41 43.41-0.53Q40.48-1.46 38.50-3.09Q36.53-4.71 35.54-6.89Q34.54-9.08 34.54-11.60ZM40.98-13.85L56.71-13.85Q56.39-14.80 55.74-15.63Q55.09-16.46 54.11-17.08Q53.13-17.70 51.84-18.05Q50.55-18.40 49.01-18.40L49.01-18.40Q47.37-18.40 46.02-18.03Q44.68-17.66 43.66-17.03Q42.64-16.41 41.97-15.59Q41.30-14.77 40.98-13.85L40.98-13.85Z M71.05 0L71.05-23.05L76.83-23.05L76.83-19.73Q78.75-21.15 80.88-22.19Q83.00-23.22 85.11-23.77L85.11-23.77L86.81-18.48Q83.47-18.14 80.94-16.98Q78.41-15.82 76.83-13.71L76.83-13.71L76.83 0L71.05 0Z M100.84 0L89.93-23.07L96.63-23.07L102.62-9.20L104.18-5.31L105.75-9.20L111.74-23.07L118.44-23.07L107.52 0L100.84 0Z M127.53-26.19L127.53-26.19Q126.67-26.19 125.98-26.44Q125.29-26.68 124.80-27.10Q124.31-27.52 124.04-28.08Q123.78-28.63 123.78-29.26L123.78-29.26Q123.78-29.90 124.04-30.46Q124.31-31.02 124.80-31.43Q125.29-31.84 125.98-32.08Q126.67-32.32 127.53-32.32L127.53-32.32Q128.41-32.32 129.10-32.08Q129.80-31.84 130.29-31.43Q130.77-31.02 131.04-30.46Q131.30-29.90 131.30-29.26L131.30-29.26Q131.30-28.63 131.04-28.08Q130.77-27.52 130.29-27.10Q129.80-26.68 129.10-26.44Q128.41-26.19 127.53-26.19ZM124.64 0L124.64-23.05L130.42-23.05L130.42 0L124.64 0Z M138.44-11.46L138.44-11.46Q138.44-14.00 139.37-16.20Q140.29-18.40 142.08-20.01Q143.87-21.62 146.46-22.54Q149.04-23.46 152.36-23.46L152.36-23.46Q153.81-23.46 155.27-23.28Q156.74-23.11 158.10-22.78Q159.45-22.46 160.64-22.02Q161.84-21.58 162.71-21.05L162.71-21.05L160.04-16.70Q158.14-17.58 156.46-17.99Q154.77-18.40 153.03-18.40L153.03-18.40Q151.04-18.40 149.45-17.88Q147.87-17.36 146.77-16.44Q145.66-15.51 145.09-14.25Q144.51-12.99 144.51-11.50L144.51-11.50Q144.51-10.02 145.13-8.76Q145.74-7.50 146.87-6.59Q147.99-5.68 149.58-5.17Q151.17-4.65 153.13-4.65L153.13-4.65Q155.27-4.65 157.18-5.25Q159.08-5.86 160.72-6.88L160.72-6.88L163.40-2.52Q162.36-1.89 161.15-1.36Q159.94-0.82 158.56-0.43Q157.19-0.04 155.67 0.19Q154.16 0.41 152.54 0.41L152.54 0.41Q149.24 0.41 146.62-0.49Q144.00-1.39 142.19-2.98Q140.37-4.57 139.40-6.74Q138.44-8.91 138.44-11.46Z M170.54-11.60L170.54-11.60Q170.54-13.95 171.49-16.08Q172.45-18.22 174.25-19.86Q176.04-21.50 178.65-22.48Q181.26-23.46 184.58-23.46L184.58-23.46Q187.88-23.46 190.53-22.47Q193.17-21.48 195.02-19.77Q196.86-18.05 197.85-15.72Q198.84-13.40 198.84-10.74L198.84-10.74Q198.84-10.41 198.83-10.03Q198.82-9.65 198.78-9.34L198.78-9.34L176.98-9.34Q177.35-8.30 178.18-7.44Q179.01-6.58 180.26-5.96Q181.51-5.33 183.15-4.99Q184.79-4.65 186.79-4.65L186.79-4.65Q188.78-4.65 190.75-5.07Q192.72-5.49 194.52-6.13L194.52-6.13L196.47-1.72Q195.34-1.19 194.18-0.79Q193.02-0.39 191.76-0.13Q190.50 0.14 189.12 0.27Q187.74 0.41 186.22 0.41L186.22 0.41Q182.33 0.41 179.40-0.53Q176.47-1.46 174.50-3.09Q172.53-4.71 171.53-6.89Q170.54-9.08 170.54-11.60ZM176.98-13.85L192.70-13.85Q192.39-14.80 191.74-15.63Q191.08-16.46 190.11-17.08Q189.13-17.70 187.84-18.05Q186.55-18.40 185.01-18.40L185.01-18.40Q183.37-18.40 182.02-18.03Q180.67-17.66 179.66-17.03Q178.64-16.41 177.97-15.59Q177.29-14.77 176.98-13.85L176.98-13.85Z M207.77 0L207.77-30.53L218.96-30.53Q223.86-30.53 227.48-29.47Q231.09-28.42 233.46-26.46Q235.84-24.49 237.00-21.69Q238.16-18.89 238.16-15.39L238.16-15.39Q238.16-12.07 237.01-9.25Q235.86-6.43 233.49-4.37Q231.13-2.30 227.52-1.14Q223.90 0.02 219 0.02L219 0.02L207.77 0ZM213.96-5.35L220.48-5.35Q223.26-5.35 225.35-6.06Q227.44-6.78 228.83-8.09Q230.23-9.39 230.93-11.25Q231.64-13.11 231.64-15.39L231.64-15.39Q231.64-17.64 230.93-19.44Q230.23-21.25 228.83-22.51Q227.44-23.77 225.35-24.45Q223.26-25.14 220.48-25.14L220.48-25.14L213.96-25.14L213.96-5.35Z M244.57-15.35L244.57-15.35Q244.57-18.81 245.84-21.68Q247.11-24.55 249.41-26.61Q251.70-28.67 254.92-29.80Q258.13-30.94 262.04-30.94L262.04-30.94Q265.92-30.94 269.14-29.80Q272.37-28.67 274.66-26.61Q276.96-24.55 278.23-21.68Q279.50-18.81 279.50-15.35L279.50-15.35Q279.50-11.88 278.23-8.97Q276.96-6.07 274.66-3.98Q272.37-1.89 269.14-0.73Q265.92 0.43 262.04 0.43L262.04 0.43Q258.13 0.43 254.92-0.73Q251.70-1.89 249.41-3.98Q247.11-6.07 245.84-8.97Q244.57-11.88 244.57-15.35ZM250.77-15.35L250.77-15.35Q250.77-12.99 251.62-11.09Q252.46-9.20 253.98-7.86Q255.49-6.52 257.55-5.80Q259.61-5.08 262.04-5.08L262.04-5.08Q264.46-5.08 266.52-5.80Q268.58-6.52 270.08-7.86Q271.59-9.20 272.45-11.09Q273.30-12.99 273.30-15.35L273.30-15.35Q273.30-17.71 272.45-19.59Q271.59-21.46 270.08-22.76Q268.58-24.06 266.52-24.75Q264.46-25.43 262.04-25.43L262.04-25.43Q259.61-25.43 257.55-24.75Q255.49-24.06 253.98-22.76Q252.46-21.46 251.62-19.59Q250.77-17.71 250.77-15.35Z M287.77-3.38L287.77-3.38Q287.77-4.16 288.09-4.85Q288.41-5.55 289.02-6.06Q289.62-6.58 290.48-6.88Q291.34-7.17 292.41-7.17L292.41-7.17Q293.49-7.17 294.35-6.88Q295.21-6.58 295.80-6.06Q296.40-5.55 296.72-4.85Q297.04-4.16 297.04-3.38L297.04-3.38Q297.04-2.60 296.72-1.90Q296.40-1.21 295.80-0.70Q295.21-0.20 294.35 0.11Q293.49 0.41 292.41 0.41L292.41 0.41Q291.34 0.41 290.48 0.11Q289.62-0.20 289.02-0.70Q288.41-1.21 288.09-1.90Q287.77-2.60 287.77-3.38Z M305.02-11.46L305.02-11.46Q305.02-14.00 305.95-16.20Q306.88-18.40 308.66-20.01Q310.45-21.62 313.04-22.54Q315.63-23.46 318.95-23.46L318.95-23.46Q320.39-23.46 321.86-23.28Q323.32-23.11 324.68-22.78Q326.04-22.46 327.23-22.02Q328.42-21.58 329.30-21.05L329.30-21.05L326.62-16.70Q324.73-17.58 323.04-17.99Q321.35-18.40 319.61-18.40L319.61-18.40Q317.62-18.40 316.04-17.88Q314.45-17.36 313.35-16.44Q312.25-15.51 311.67-14.25Q311.09-12.99 311.09-11.50L311.09-11.50Q311.09-10.02 311.71-8.76Q312.32-7.50 313.45-6.59Q314.57-5.68 316.16-5.17Q317.75-4.65 319.71-4.65L319.71-4.65Q321.86-4.65 323.76-5.25Q325.66-5.86 327.30-6.88L327.30-6.88L329.98-2.52Q328.95-1.89 327.73-1.36Q326.52-0.82 325.15-0.43Q323.77-0.04 322.26 0.19Q320.74 0.41 319.12 0.41L319.12 0.41Q315.82 0.41 313.20-0.49Q310.59-1.39 308.77-2.98Q306.95-4.57 305.99-6.74Q305.02-8.91 305.02-11.46Z M336.82-11.52L336.82-11.52Q336.82-14.00 337.83-16.17Q338.84-18.34 340.70-19.96Q342.57-21.58 345.21-22.52Q347.86-23.46 351.16-23.46L351.16-23.46Q354.46-23.46 357.11-22.52Q359.75-21.58 361.62-19.96Q363.48-18.34 364.49-16.17Q365.50-14.00 365.50-11.52L365.50-11.52Q365.50-9.04 364.49-6.88Q363.48-4.71 361.62-3.09Q359.75-1.46 357.11-0.53Q354.46 0.41 351.16 0.41L351.16 0.41Q347.86 0.41 345.21-0.53Q342.57-1.46 340.70-3.09Q338.84-4.71 337.83-6.88Q336.82-9.04 336.82-11.52ZM342.90-11.52L342.90-11.52Q342.90-10.14 343.46-8.90Q344.01-7.66 345.08-6.71Q346.14-5.76 347.67-5.21Q349.21-4.65 351.16-4.65L351.16-4.65Q353.11-4.65 354.65-5.21Q356.18-5.76 357.24-6.71Q358.31-7.66 358.87-8.90Q359.42-10.14 359.42-11.52L359.42-11.52Q359.42-12.91 358.87-14.16Q358.31-15.41 357.24-16.36Q356.18-17.30 354.65-17.86Q353.11-18.42 351.16-18.42L351.16-18.42Q349.21-18.42 347.67-17.86Q346.14-17.30 345.08-16.36Q344.01-15.41 343.46-14.16Q342.90-12.91 342.90-11.52Z M373.49 0L373.49-23.05L379.27-23.05L379.27-21.09Q381.44-22.42 383.50-22.94Q385.56-23.46 387.54-23.46L387.54-23.46Q390.29-23.46 392.59-22.58Q394.90-21.70 396.54-19.92L396.54-19.92Q397.81-20.90 399.04-21.57Q400.27-22.25 401.50-22.67Q402.73-23.09 404-23.27Q405.27-23.46 406.62-23.46L406.62-23.46Q409.45-23.46 411.75-22.69Q414.06-21.91 415.69-20.39Q417.32-18.87 418.21-16.59Q419.10-14.32 419.10-11.33L419.10-11.33L419.10 0L413.34 0L413.34-10.39Q413.34-12.29 412.80-13.78Q412.26-15.27 411.29-16.30Q410.33-17.32 408.99-17.86Q407.65-18.40 406.05-18.40L406.05-18.40Q405.17-18.40 404.25-18.23Q403.34-18.07 402.47-17.71Q401.60-17.36 400.84-16.83Q400.07-16.29 399.51-15.57L399.51-15.57L399.51 0L393.75 0L393.75-10.39Q393.75-12.29 393.21-13.78Q392.67-15.27 391.71-16.30Q390.74-17.32 389.38-17.86Q388.02-18.40 386.40-18.40L386.40-18.40Q385.41-18.40 384.40-18.19Q383.39-17.99 382.47-17.62Q381.54-17.25 380.73-16.72Q379.92-16.19 379.27-15.53L379.27-15.53L379.27 0L373.49 0Z"/></g>
</svg>
</g><g opacity="1" transform="rotate(0 149.4666 -45.0552)">
<svg width="142.6133" height="230.9933" x="149.4666" y="-45.0552" version="1.1" preserveAspectRatio="none" viewBox="64.5 42.5 71 115">
  <g transform="matrix(1 0 0 1 0 0)" ><g><path d="M118.257 42.5H81.743c-9.507 0-17.243 7.699-17.243 17.164v80.672c0 9.464 7.736 17.164 17.243 17.164h36.514c9.507 0 17.243-7.7 17.243-17.164V59.664c0-9.465-7.736-17.164-17.243-17.164zm13.411 97.836c0 7.36-6.017 13.35-13.411 13.35H81.743c-7.394 0-13.411-5.99-13.411-13.35V59.664c0-7.361 6.017-13.35 13.411-13.35h36.514c7.394 0 13.411 5.988 13.411 13.35v80.672z" data-color="1" class="icon1"></path><path d="M122.253 59.542H77.744c-2.308 0-4.184 1.867-4.184 4.163v12.847c0 1.053.858 1.907 1.916 1.907a1.912 1.912 0 0 0 1.916-1.907V63.705c0-.189.162-.349.352-.349h44.509a.35.35 0 0 1 .352.349v66.281a.35.35 0 0 1-.352.348H77.744a.35.35 0 0 1-.352-.348V85.432a1.912 1.912 0 0 0-1.916-1.907 1.912 1.912 0 0 0-1.916 1.907v44.554c0 2.294 1.876 4.162 4.184 4.162h44.509c2.308 0 4.184-1.867 4.184-4.162V63.705c0-2.295-1.876-4.163-4.184-4.163z" data-color="1" class="icon1"></path><path d="M96.212 140.706a5.325 5.325 0 0 0-.002 7.542 5.334 5.334 0 0 0 3.789 1.562 5.332 5.332 0 0 0 3.789-1.562 5.323 5.323 0 0 0 0-7.542c-2.026-2.016-5.555-2.016-7.576 0zm4.867 4.845c-.576.574-1.577.579-2.158 0a1.516 1.516 0 0 1 .002-2.148 1.506 1.506 0 0 1 1.075-.445c.409 0 .791.156 1.08.445.595.593.595 1.554.001 2.148z" data-color="1" class="icon1"></path></g></g>
</svg>
</g></svg></svg>